<?xml version="1.0" encoding="UTF-8"?>
<svg width="24px" height="24px" viewBox="0 0 24 24" version="1.1" xmlns="http://www.w3.org/2000/svg" xmlns:xlink="http://www.w3.org/1999/xlink">
    <title>ugc_icon_like_selected_24</title>
    <defs>
        <linearGradient x1="0%" y1="50%" x2="100%" y2="50%" id="linearGradient-1">
            <stop stop-color="#FFF000" offset="0%"></stop>
            <stop stop-color="#FFD800" offset="100%"></stop>
        </linearGradient>
    </defs>
    <g id="页面-1" stroke="none" stroke-width="1" fill="none" fill-rule="evenodd">
        <g id="01/08-所有信息流卡片全样式" transform="translate(-306.000000, -1287.000000)" fill="url(#linearGradient-1)" fill-rule="nonzero" stroke="url(#linearGradient-1)" stroke-width="1.5">
            <g id="分组-3" transform="translate(16.000000, 978.000000)">
                <g id="操作栏" transform="translate(0.000000, 309.000000)">
                    <g id="Group-27-Copy-2" transform="translate(290.000000, 0.000000)">
                        <g id="Group-10" transform="translate(2.181818, 2.181818)">
                            <path d="M2.9280508,6.62045586 L3.409,18.8862215 L2.92777308,18.8863636 C2.32703787,18.8863636 1.78343293,18.6405978 1.38984205,18.2440407 C0.994220818,17.845438 0.75,17.2946425 0.75,16.6865263 L0.75,16.6865263 L0.75,8.82029328 C0.75,8.21217708 0.994220818,7.66138152 1.38984205,7.26277881 C1.78343293,6.86622175 2.32703787,6.62045592 2.9280508,6.62045586 L2.9280508,6.62045586 Z M8.33523737,1.32479446 C8.99548681,0.858998751 9.83207323,0.646674023 10.6886389,0.79884789 C11.5462578,0.951208892 12.2609707,1.43987258 12.7238026,2.10584641 C13.1881768,2.77403954 13.3992581,3.62074834 13.2475763,4.48746158 L13.2475763,4.48746158 L12.874285,6.62045592 L15.7326662,6.62045592 C16.6028955,6.62045592 17.3904815,6.97627902 17.96068,7.55077459 C18.5329088,8.12731583 18.8863636,8.92393117 18.8863636,9.80357241 C18.8863636,10.0097955 18.8665086,10.2155236 18.8270786,10.417866 L18.8270786,10.417866 L17.4607861,16.3175337 C17.3148362,17.0663294 16.9158698,17.7105154 16.3636479,18.1666408 C15.8158856,18.6190826 15.1172943,18.8863636 14.3664034,18.8863636 L14.3664034,18.8863636 L6.40900495,18.8860313 L6.40908987,6.03040108 C6.63213588,5.5206781 6.69115227,5.35247937 6.72271399,5.17213502 L6.72271399,5.17213502 L7.03633694,3.38008664 C7.18783648,2.51441499 7.67277015,1.79215477 8.33523737,1.32479446 Z" id="合并形状"></path>
                        </g>
                    </g>
                </g>
            </g>
        </g>
    </g>
</svg>