<?xml version="1.0" encoding="UTF-8"?>
<svg width="24px" height="24px" viewBox="0 0 24 24" version="1.1" xmlns="http://www.w3.org/2000/svg" xmlns:xlink="http://www.w3.org/1999/xlink">
    <title>评论</title>
    <g id="页面-1" stroke="none" stroke-width="1" fill="none" fill-rule="evenodd">
        <g id="01/08-所有信息流卡片全样式" transform="translate(-237.000000, -3089.000000)" fill-rule="nonzero" stroke="#333333" stroke-width="1.5">
            <g id="分组-3" transform="translate(16.000000, 2889.000000)">
                <g id="操作栏" transform="translate(0.000000, 200.000000)">
                    <g id="Group-94" transform="translate(221.000000, 0.000000)">
                        <path d="M16.5856934,18.5 C14.6713867,18.5 12.9717805,20.7629395 12.25,20.7629395 C11.9163801,20.7629395 11.8140679,20.4003396 11.9430632,19.6751398 C12.0397971,19.1313852 11.6774031,18.6121753 11.1336463,18.5154543 C11.0758369,18.5051714 11.0172341,18.5 10.9585173,18.5 L6,18.5 L6,18.5 C4.34314575,18.5 3,17.1568542 3,15.5 L3,7 C3,5.34314575 4.34314575,4 6,4 L18.5,4 C20.1568542,4 21.5,5.34314575 21.5,7 L21.5,15.5 C21.5,17.1568542 20.1568542,18.5 18.5,18.5 C18.5,18.5 17.8618978,18.5 16.5856934,18.5 Z" id="Combined-Shape-Copy-7"></path>
                        <g id="Group-7" transform="translate(7.000000, 11.000000)" fill="#333333">
                            <circle id="Oval-11-Copy-6" cx="5.5" cy="0.5" r="1"></circle>
                            <circle id="Oval-11-Copy-7" cx="0.5" cy="0.5" r="1"></circle>
                            <circle id="Oval-11-Copy-8" cx="10.5" cy="0.5" r="1"></circle>
                        </g>
                    </g>
                </g>
            </g>
        </g>
    </g>
</svg>